<svg width="123" height="58" viewBox="0 0 123 58" fill="none" xmlns="http://www.w3.org/2000/svg">
<path d="M39.8813 27.0279C38.4774 17.0756 30.0312 10.1363 19.9957 10.6897C9.38746 11.2747 1.47884 20.552 2.0759 31.1595C2.70419 42.3218 13.1835 51.1169 24.2162 49.3081C34.7125 47.5874 41.8138 37.4872 39.8813 27.0279ZM39.8813 27.0279C42.2652 25.3215 43.0709 22.9729 45.9857 22.6585C49.2006 22.3116 51.7436 23.5888 53.385 26.3748M91.2317 26.3848C91.4358 27.4329 91.5557 28.5088 91.5836 29.6048C91.8427 39.7671 84.915 48.1891 74.8389 49.5348C62.6186 51.1669 50.8244 38.4348 53.385 26.3748C54.9494 17.3749 61.4777 11.3494 70.574 10.5099C80.5225 9.59174 89.3721 16.8336 91.2317 26.3848ZM91.2317 26.3848L119.735 19.9464" stroke="#111111" stroke-width="4.0893" stroke-linecap="round"/>
<path d="M24.3632 16.7934C17.1953 17.1994 14.2465 19.2919 10.5285 25.7099M74.1729 17.109C67.7509 17.025 65.0945 19.0591 61.4689 25.0792" stroke="white" stroke-width="4.0893" stroke-linecap="round"/>
</svg>
