<svg width="36" height="36" viewBox="0 0 36 36" fill="none" xmlns="http://www.w3.org/2000/svg">
<path d="M11.9953 14.3791C11.1937 13.5072 9.82968 13.451 8.95781 14.2525C8.53593 14.6393 8.28984 15.1736 8.26875 15.7432C8.24765 16.3197 8.44453 16.8682 8.83828 17.29L15.2437 24.2439C15.6375 24.6729 16.193 24.926 16.7695 24.94C16.7906 24.94 16.8047 24.94 16.8258 24.94C17.3883 24.94 17.9437 24.708 18.3445 24.3143L34.5375 8.16348C34.9453 7.75566 35.1703 7.22129 35.1703 6.64473C35.1703 6.06816 34.9453 5.52676 34.5445 5.12598C34.1367 4.71816 33.5953 4.49316 33.0258 4.49316C32.4492 4.49316 31.9148 4.71816 31.507 5.11895L16.882 19.6877L11.9953 14.3791Z" fill="white"/>
<path d="M33.6023 15.8484C32.4141 15.8484 31.4508 16.8117 31.4508 18C31.4508 25.418 25.418 31.4508 18 31.4508C10.582 31.4508 4.54922 25.418 4.54922 18C4.54922 10.582 10.582 4.54922 18 4.54922C19.1883 4.54922 20.1516 3.58594 20.1516 2.39766C20.1516 1.20937 19.1883 0.246094 18 0.246094C8.2125 0.246094 0.246094 8.2125 0.246094 18C0.246094 27.7875 8.2125 35.7539 18 35.7539C27.7875 35.7539 35.7539 27.7875 35.7539 18C35.7539 16.8117 34.7906 15.8484 33.6023 15.8484Z" fill="white"/>
</svg>
