<svg width="10" height="11" viewBox="0 0 10 11" fill="none" xmlns="http://www.w3.org/2000/svg">
<path d="M5.91615 5.14702L9.80995 1.21245C10.0634 0.956521 10.0634 0.542722 9.80995 0.286794C9.55667 0.0308668 9.14714 0.0308668 8.89386 0.286794L4.99994 4.22136L1.10614 0.286794C0.85274 0.0308668 0.443335 0.0308668 0.190051 0.286794C-0.0633505 0.542722 -0.0633505 0.956521 0.190051 1.21245L4.08385 5.14702L0.190051 9.08158C-0.0633505 9.33751 -0.0633505 9.75131 0.190051 10.0072C0.316278 10.1349 0.482246 10.199 0.648097 10.199C0.813947 10.199 0.979797 10.1349 1.10614 10.0072L4.99994 6.07267L8.89386 10.0072C9.0202 10.1349 9.18605 10.199 9.3519 10.199C9.51775 10.199 9.6836 10.1349 9.80995 10.0072C10.0634 9.75131 10.0634 9.33751 9.80995 9.08158L5.91615 5.14702Z" fill="black"/>
</svg>
