<?xml version="1.0" encoding="utf-8"?>
<!-- Generator: Adobe Illustrator 24.2.1, SVG Export Plug-In . SVG Version: 6.00 Build 0)  -->
<svg version="1.1" id="Layer_1" xmlns="http://www.w3.org/2000/svg" xmlns:xlink="http://www.w3.org/1999/xlink" x="0px" y="0px"
	 viewBox="0 0 512 512" style="enable-background:new 0 0 512 512;" xml:space="preserve">
<path d="M448,64h-21.3V21.3c0-11.8-9.6-21.3-21.3-21.3H384c-11.8,0-21.3,9.6-21.3,21.3V64H149.3V21.3C149.3,9.6,139.8,0,128,0h-21.3
	C94.9,0,85.3,9.6,85.3,21.3V64H64C28.7,64,0,92.7,0,128v320c0,35.3,28.7,64,64,64h384c35.3,0,64-28.7,64-64V128
	C512,92.7,483.3,64,448,64z M469.3,448c0,11.8-9.6,21.3-21.3,21.3H64c-11.8,0-21.3-9.6-21.3-21.3V214.2h426.7V448z"/>
</svg>
