<svg width="24" height="18" viewBox="0 0 24 18" fill="none" xmlns="http://www.w3.org/2000/svg">
<path d="M0.501751 1.39089C3.79566 4.04763 9.57544 8.72165 11.2742 10.179C11.5022 10.3757 11.7468 10.4757 12.0008 10.4757C12.2542 10.4757 12.4983 10.3767 12.7259 10.1809C14.4261 8.7221 20.2058 4.04763 23.4998 1.39089C23.7049 1.2258 23.7361 0.935625 23.5701 0.733795C23.1863 0.267411 22.6141 0 22.0007 0H2.00077C1.3875 0 0.815204 0.267411 0.431438 0.733839C0.265407 0.935625 0.296672 1.2258 0.501751 1.39089Z" fill="white"/>
<path d="M23.71 2.83053C23.5327 2.75196 23.3242 2.77937 23.1768 2.89937C19.5239 5.84856 14.8618 9.62883 13.395 10.8876C12.5717 11.5954 11.4292 11.5954 10.604 10.8867C9.0405 9.54508 3.80512 5.30633 0.823219 2.89932C0.674766 2.77932 0.465797 2.75285 0.290016 2.83048C0.113297 2.90865 0 3.077 0 3.26254V15.238C0 16.2885 0.896953 17.1428 2.00002 17.1428H22C23.103 17.1428 24 16.2885 24 15.238V3.26254C24 3.077 23.8867 2.90821 23.71 2.83053Z" fill="white"/>
</svg>
