<svg width="21" height="20" viewBox="0 0 21 20" fill="none" xmlns="http://www.w3.org/2000/svg">
<path d="M0.439138 3.71703C3.32131 6.04168 8.37862 10.1314 9.86502 11.4066C10.0646 11.5788 10.2786 11.6663 10.5008 11.6663C10.7225 11.6663 10.9361 11.5796 11.1352 11.4083C12.6229 10.1318 17.6802 6.04168 20.5624 3.71703C20.7419 3.57258 20.7692 3.31867 20.624 3.14207C20.2881 2.73398 19.7874 2.5 19.2508 2.5H1.75078C1.21417 2.5 0.71341 2.73398 0.377615 3.14211C0.232338 3.31867 0.259695 3.57258 0.439138 3.71703Z" fill="#5D55FF"/>
<path d="M20.7462 4.97677C20.5912 4.90802 20.4087 4.93201 20.2797 5.03701C17.0834 7.61755 13.0041 10.9253 11.7206 12.0267C11.0003 12.646 10.0005 12.646 9.27847 12.0259C7.91044 10.852 3.32948 7.1431 0.720316 5.03697C0.59042 4.93197 0.407572 4.9088 0.253764 4.97673C0.0991348 5.04513 0 5.19244 0 5.35478V15.8333C0 16.7525 0.784834 17.5 1.75001 17.5H19.25C20.2152 17.5 21 16.7525 21 15.8333V5.35478C21 5.19244 20.9009 5.04474 20.7462 4.97677Z" fill="#5D55FF"/>
</svg>
