<?xml version="1.0" encoding="utf-8"?>
<!-- Generator: Adobe Illustrator 24.2.1, SVG Export Plug-In . SVG Version: 6.00 Build 0)  -->
<svg version="1.1" id="Capa_1" xmlns="http://www.w3.org/2000/svg" xmlns:xlink="http://www.w3.org/1999/xlink" x="0px" y="0px"
	 viewBox="0 0 512 512" style="enable-background:new 0 0 512 512;" xml:space="preserve">
<style type="text/css">
	.st0{fill:#FFFFFF;}
</style>
<g>
	<g>
		<path class="st0" d="M256,5.3C114.6,5.3,0,120.4,0,262.4c0,113.5,73.3,209.9,175.1,243.9c12.8,2.4,17.5-5.6,17.5-12.4
			c0-6.1-0.2-22.3-0.4-43.7C121,465.6,106,415.7,106,415.7c-11.6-29.7-28.4-37.6-28.4-37.6c-23.3-15.9,1.7-15.6,1.7-15.6
			c25.7,1.8,39.2,26.5,39.2,26.5c22.8,39.3,59.9,27.9,74.5,21.3c2.3-16.6,8.9-27.9,16.3-34.4c-56.8-6.5-116.6-28.5-116.6-127
			c0-28.1,10-51,26.4-69c-2.7-6.5-11.4-32.6,2.5-68c0,0,21.5-6.9,70.4,26.3c20.4-5.7,42.3-8.5,64.1-8.6c21.7,0.1,43.6,2.9,64.1,8.7
			C369,105,390.5,112,390.5,112c14,35.4,5.2,61.5,2.6,68c16.4,18,26.3,40.9,26.3,69c0,98.7-59.8,120.4-116.9,126.8
			c9.2,7.9,17.4,23.6,17.4,47.6c0,34.4-0.3,62.1-0.3,70.5c0,6.9,4.6,14.9,17.6,12.4C438.7,472.1,512,375.9,512,262.4
			C512,120.4,397.4,5.3,256,5.3z"/>
	</g>
</g>
</svg>
