<svg width="34" height="36" viewBox="0 0 34 36" fill="none" xmlns="http://www.w3.org/2000/svg">
<path d="M3.08764 15.0464C4.245 15.0464 5.29043 14.3515 5.73811 13.2839C7.58654 8.87997 11.933 5.77627 17 5.77627C19.7927 5.77627 22.353 6.73348 24.4057 8.32109L22.7968 8.57016C22.2472 8.65535 21.8197 9.09136 21.7452 9.64241C21.6706 10.1932 21.9675 10.7275 22.4743 10.9552L31.3219 14.9357C31.7098 15.1098 32.1591 15.0764 32.5166 14.8466C32.8734 14.6166 33.0902 14.2217 33.0926 13.7969L33.1385 4.04798C33.1416 3.49338 32.78 3.00292 32.25 2.84125C31.7192 2.67959 31.1457 2.88477 30.8385 3.34642L29.619 5.17919C26.3676 1.97855 21.9124 0 17 0C9.5515 0 3.14748 4.54864 0.416175 11.0136C0.0368393 11.9097 0.132449 12.9358 0.669534 13.7465C1.20662 14.5575 2.11447 15.0464 3.08764 15.0464Z" fill="white"/>
<path d="M33.3304 22.2536C32.7933 21.4425 31.8854 20.9536 30.9123 20.9536C29.7549 20.9536 28.7095 21.6485 28.2618 22.7161C26.4133 27.1201 22.0669 30.2238 16.9999 30.2238C14.2071 30.2238 11.6468 29.2666 9.59406 27.679L11.203 27.43C11.7525 27.3448 12.18 26.9088 12.2547 26.3576C12.3292 25.807 12.0324 25.2725 11.5256 25.0448L2.67794 21.0644C2.29003 20.8903 1.8408 20.9236 1.48326 21.1534C1.12645 21.3835 0.909596 21.7783 0.907306 22.2031L0.861348 31.952C0.858245 32.5066 1.2197 32.997 1.74977 33.1587C2.28064 33.3204 2.85423 33.1151 3.1613 32.6534L4.38081 30.8206C7.63214 34.0214 12.0875 36 16.9998 36C24.4485 36 30.8523 31.4514 33.5835 24.9864C33.9631 24.0903 33.8674 23.0643 33.3304 22.2536Z" fill="white"/>
</svg>
