<svg width="20" height="20" viewBox="0 0 20 20" fill="none" xmlns="http://www.w3.org/2000/svg">
<path d="M13.5156 4.68752H17.2734L12.9297 0.343765V4.10158C12.9297 4.4258 13.1914 4.68752 13.5156 4.68752Z" fill="white"/>
<path d="M4.14062 20H15.8594C16.8281 20 17.6172 19.2109 17.6172 18.2422V5.85938H13.5156C12.5469 5.85938 11.7578 5.07031 11.7578 4.10156V0H4.14062C3.17188 0 2.38281 0.789063 2.38281 1.75781V18.2422C2.38281 19.2109 3.17188 20 4.14062 20ZM7.65625 9.41406H13.5156C13.8398 9.41406 14.1016 9.67578 14.1016 10C14.1016 10.3242 13.8398 10.5859 13.5156 10.5859H7.65625C7.33203 10.5859 7.07031 10.3242 7.07031 10C7.07031 9.67578 7.33203 9.41406 7.65625 9.41406ZM7.65625 11.7578H13.5156C13.8398 11.7578 14.1016 12.0195 14.1016 12.3438C14.1016 12.668 13.8398 12.9297 13.5156 12.9297H7.65625C7.33203 12.9297 7.07031 12.668 7.07031 12.3438C7.07031 12.0195 7.33203 11.7578 7.65625 11.7578ZM7.65625 14.1016H13.5156C13.8398 14.1016 14.1016 14.3633 14.1016 14.6875C14.1016 15.0117 13.8398 15.2734 13.5156 15.2734H7.65625C7.33203 15.2734 7.07031 15.0117 7.07031 14.6875C7.07031 14.3633 7.33203 14.1016 7.65625 14.1016ZM5.3125 9.41406C5.63672 9.41406 5.89844 9.67578 5.89844 10C5.89844 10.3242 5.63672 10.5859 5.3125 10.5859C4.98828 10.5859 4.72656 10.3242 4.72656 10C4.72656 9.67578 4.98828 9.41406 5.3125 9.41406ZM5.3125 11.7578C5.63672 11.7578 5.89844 12.0195 5.89844 12.3438C5.89844 12.668 5.63672 12.9297 5.3125 12.9297C4.98828 12.9297 4.72656 12.668 4.72656 12.3438C4.72656 12.0195 4.98828 11.7578 5.3125 11.7578ZM5.3125 14.1016C5.63672 14.1016 5.89844 14.3633 5.89844 14.6875C5.89844 15.0117 5.63672 15.2734 5.3125 15.2734C4.98828 15.2734 4.72656 15.0117 4.72656 14.6875C4.72656 14.3633 4.98828 14.1016 5.3125 14.1016Z" fill="white"/>
</svg>
