<?xml version="1.0" encoding="utf-8"?>
<!-- Generator: Adobe Illustrator 24.2.1, SVG Export Plug-In . SVG Version: 6.00 Build 0)  -->
<svg version="1.1" id="Capa_1" xmlns="http://www.w3.org/2000/svg" xmlns:xlink="http://www.w3.org/1999/xlink" x="0px" y="0px"
	 viewBox="0 0 512 512" style="enable-background:new 0 0 512 512;" xml:space="preserve">
<style type="text/css">
	.st0{fill:#5D55FF;}
</style>
<g>
	<path class="st0" d="M498,250.9C498,250.9,498,250.9,498,250.9L396.9,150.3c-7.6-7.5-19.8-7.5-27.4,0.1c-7.5,7.6-7.5,19.8,0.1,27.4
		l67.9,67.6H27.7c-10.7,0-19.3,8.7-19.3,19.3S17,284,27.7,284h409.8l-67.9,67.6c-7.6,7.5-7.6,19.8-0.1,27.4
		c7.5,7.6,19.8,7.6,27.4,0.1L498,278.3c0,0,0,0,0,0C505.6,270.8,505.6,258.5,498,250.9z"/>
	<path class="st0" d="M383.2,386.6C383.2,386.6,383.2,386.6,383.2,386.6c-5.8,0-11.1-2.2-15.1-6.3c-8.3-8.3-8.3-21.9,0.1-30.2
		l64.4-64.1H27.7c-11.8,0-21.4-9.6-21.4-21.4c0-11.8,9.6-21.3,21.4-21.3h404.9l-64.4-64.1c-4-4-6.3-9.4-6.3-15.1
		c0-5.7,2.2-11.1,6.2-15.1c8.3-8.3,21.8-8.4,30.2-0.1l101.2,100.7c4,4,6.2,9.4,6.2,15.1c0,5.7-2.2,11-6.2,15.1l-0.1,0.1L398.3,380.4
		C394.3,384.4,388.9,386.6,383.2,386.6z M27.7,247.3c-9.6,0-17.4,7.8-17.4,17.3c0,9.6,7.8,17.4,17.4,17.4h414.6l-71.3,71
		c-6.8,6.7-6.8,17.8-0.1,24.5c3.3,3.3,7.6,5.1,12.3,5.1c0,0,0,0,0,0c4.6,0,9-1.8,12.2-5.1l101.2-100.7c3.3-3.3,5-7.6,5-12.2
		c0-4.6-1.8-9-5.1-12.3l0,0L395.5,151.7c-6.8-6.7-17.8-6.7-24.5,0.1c-3.3,3.3-5.1,7.6-5.1,12.3c0,4.6,1.8,9,5.1,12.3l71.3,71H27.7z"
		/>
</g>
</svg>
