<?xml version="1.0" encoding="utf-8"?>
<!-- Generator: Adobe Illustrator 24.2.1, SVG Export Plug-In . SVG Version: 6.00 Build 0)  -->
<svg version="1.1" id="Capa_1" xmlns="http://www.w3.org/2000/svg" xmlns:xlink="http://www.w3.org/1999/xlink" x="0px" y="0px"
	 viewBox="0 0 560 560" style="enable-background:new 0 0 560 560;" xml:space="preserve">
<g>
	<g>
		<path d="M280,0C125.6,0,0,125.6,0,280c0,154.4,125.6,280,280,280c154.4,0,280-125.6,280-280S434.4,0,280,0z M280,498.8
			c-120.6,0-218.8-98.1-218.8-218.8c0-120.6,98.1-218.8,218.8-218.8S498.8,159.4,498.8,280C498.8,400.6,400.6,498.8,280,498.8z"/>
		<path d="M304.2,280.3V163c0-13.1-10.6-23.7-23.7-23.7c-13.1,0-23.7,10.6-23.7,23.7v124.9c0,0.4,0.1,0.7,0.1,1.1
			c-0.3,6.5,1.9,13,6.8,17.9l88.3,88.3c9.3,9.3,24.3,9.3,33.5,0c9.3-9.3,9.3-24.3,0-33.5L304.2,280.3z"/>
	</g>
</g>
</svg>
