<svg width="26" height="19" viewBox="0 0 26 19" fill="none" xmlns="http://www.w3.org/2000/svg">
<path d="M21.1562 18V15.1875H23.3088C24.6441 15.1875 25.7266 14.0941 25.7266 12.7453V2.44216C25.7266 1.09336 24.6441 0 23.3088 0H2.76152C1.42621 0 0.34375 1.09336 0.34375 2.44216V12.7453C0.34375 14.0941 1.42621 15.1875 2.76152 15.1875H4.91406V18C4.91406 18.5794 5.57556 18.9101 6.03906 18.5625L10.5391 15.1875H15.5312L20.0312 18.5625C20.4947 18.9101 21.1562 18.5794 21.1562 18ZM5.33594 3.89426H15.3203C15.9028 3.89426 16.375 4.36648 16.375 4.94895C16.375 5.53141 15.9028 6.00363 15.3203 6.00363H5.33594C4.75347 6.00363 4.28125 5.53141 4.28125 4.94895C4.28125 4.36648 4.75347 3.89426 5.33594 3.89426ZM5.33594 11.2771C4.75347 11.2771 4.28125 10.8049 4.28125 10.2224C4.28125 9.63991 4.75347 9.1677 5.33594 9.1677H20.7344C21.3168 9.1677 21.7891 9.63991 21.7891 10.2224C21.7891 10.8049 21.3168 11.2771 20.7344 11.2771H5.33594Z" fill="white"/>
</svg>
